<?xml version="1.0" standalone="no"?><!DOCTYPE svg PUBLIC "-//W3C//DTD SVG 1.1//EN" "http://www.w3.org/Graphics/SVG/1.1/DTD/svg11.dtd"><svg t="1713925701129" class="icon" viewBox="0 0 1024 1024" version="1.1" xmlns="http://www.w3.org/2000/svg" p-id="7076" width="18" height="18" xmlns:xlink="http://www.w3.org/1999/xlink"><path d="M888.341919 407.706518a388.626456 388.626456 0 0 0-312.743846-280.880827L540.216047 18.632188Q539.832155 17.480513 539.320299 16.456801A29.62365 29.62365 0 0 0 512.191946 0.013436a29.30374 29.30374 0 0 0-28.216047 18.618752l-35.765918 108.257485A388.946366 388.946366 0 0 0 121.901959 511.869157v421.897078a30.199488 30.199488 0 0 0 23.993237 29.367722l95.972947 19.194589 30.007542-108.769341 30.007542 120.542023 84.072302 28.791884a30.007542 30.007542 0 0 0 36.021846-29.367722v-340.064144l-159.954913-53.360959a29.175776 29.175776 0 0 1-20.410246-28.216047V451.918056a29.559668 29.559668 0 0 1 11.388789-23.4174 28.599938 28.599938 0 0 1 25.592786-5.374485l232.958335 57.583769 232.958335-57.583769a28.599938 28.599938 0 0 1 25.592786 5.374485 29.559668 29.559668 0 0 1 11.38879 23.4174v119.966184a29.175776 29.175776 0 0 1-19.770427 28.152065l-159.954913 53.360959v340.320072a30.007542 30.007542 0 0 0 36.021846 29.367722l84.072302-28.791884 30.007542-120.542023 30.007542 108.769341 95.972947-19.194589a30.199488 30.199488 0 0 0 23.993237-29.367722V511.869157a393.489085 393.489085 0 0 0-13.500194-104.162639z" fill="#ffffff" p-id="7077"></path></svg>