<svg t="1713866009028" class="icon" viewBox="0 0 1024 1024" version="1.1" xmlns="http://www.w3.org/2000/svg" p-id="5943" width="18" height="18"><path d="M456.017689 224.319361a398.818363 398.818363 0 1 0 397.540918 398.562875A395.752495 395.752495 0 0 0 456.017689 224.319361z m201.836327 359.473054l-78.179641 78.43513 19.672655 111.137724c4.598802 27.081836-3.321357 41.644711-19.417166 41.644711a53.141717 53.141717 0 0 1-25.548902-8.942116l-97.852295-51.097804-97.852296 51.097804a47.00998 47.00998 0 0 1-23.760479 7.92016c-17.628743 0-25.548902-16.862275-21.972056-40.622755l19.672655-111.137724-78.179641-78.43513c-25.548902-25.548902-19.672655-51.097804 19.672655-58.762475l103.473054-13.02994 45.732535-98.107784c6.642715-16.351297 16.351297-25.548902 26.826347-25.548903s21.972056 8.175649 31.680639 25.548903l45.732535 98.107784 110.882235 13.02994c40.111776 5.365269 51.097804 32.702595 19.672655 58.762475z m176.287425-582.770459h-247.824351c-15.329341 0-20.694611 9.964072-25.548902 19.672655l-79.201597 144.606786s163.001996 6.642715 260.854291 104.49501l110.882236-229.94012a41.133733 41.133733 0 0 0 5.10978-14.307385 25.548902 25.548902 0 0 0-25.548902-25.548902z m-766.467066 61.317365l102.195609 206.690619c96.830339-84.055888 260.598802-97.085828 260.598802-97.085828L351.522679 21.716567c-8.431138-13.540918-13.02994-19.672655-25.548903-19.672655H84.281162A33.213573 33.213573 0 0 0 54.388946 17.884232a42.666667 42.666667 0 0 0 4.087824 29.381237z m0 0" p-id="5944" fill="#e6e6e6"></path></svg>