<?xml version="1.0" standalone="no"?><!DOCTYPE svg PUBLIC "-//W3C//DTD SVG 1.1//EN" "http://www.w3.org/Graphics/SVG/1.1/DTD/svg11.dtd"><svg t="1714027574015" class="icon" viewBox="0 0 1024 1024" version="1.1" xmlns="http://www.w3.org/2000/svg" p-id="24096" xmlns:xlink="http://www.w3.org/1999/xlink" width="18" height="18"><path d="M959.54 166.96c-3.174 2.564-5.303 4.2-7.339 5.945-53.856 46.151-109.393 90.155-167.6 130.711-53.441 37.241-108.236 72.185-168.432 97.855-5.01 2.135-7.802 1.452-11.549-2.455-19.825-20.682-39.949-41.083-60.115-61.435-5.613-5.668-11.72-10.843-17.845-16.47-2.609 2.307-4.774 4.002-6.685 5.943-26.791 27.22-53.702 54.325-80.16 81.862-4.535 4.72-7.82 5.711-14.013 3.385-37.998-14.287-73.702-33.12-108.337-54.044-88.022-53.178-169.09-115.826-247.325-182.3-1.78-1.514-3.658-2.912-6.189-4.916-0.14 3.015-0.27 4.757-0.296 6.502-0.91 62.103 0.385 124.126 5.871 186.043 3.902 44.051 9.452 87.822 20.01 130.815 6.84 27.854 15.47 55.094 31.139 79.54 9.79 15.278 22.516 26.82 40.102 32.57 11.675 3.816 23.101 8.418 34.844 11.996 5.142 1.563 7.695 4.421 9.873 9.089 10.82 23.183 21.445 46.488 33.244 69.173 10.569 20.323 23.384 39.318 40.017 55.389 10.522 10.167 22.313 18.835 37.405 19.077 31.132 0.491 62.282-0.092 93.426-0.282 3.362-0.022 6.723-0.387 11.394-0.673-2.965 5.45-5.18 9.526-7.502 13.8 1.3 0.978 2.214 1.815 3.258 2.428 36.403 21.334 72.87 42.555 109.16 64.08 3.883 2.306 6.282 1.246 9.363-0.74 28.294-18.24 56.63-36.413 84.946-54.62 5.453-3.51 10.86-7.098 16.697-10.915-3.216-5.533-6.193-10.647-9.927-17.07 24.08 0 46.696-0.543 69.274 0.155 22.086 0.68 39.483-7.995 53.779-23.997 5.515-6.174 10.91-12.52 15.736-19.236 22.43-31.203 38.494-65.803 53.157-101.098 2.014-4.846 4.748-7.595 9.84-9.143 10.547-3.206 20.75-7.548 31.308-10.712 22.168-6.644 38-21.136 47.397-41.391 9.56-20.603 18.162-41.948 24.308-63.776 13.854-49.213 20.367-99.857 22.982-150.796 2.856-55.692 3.885-111.475 5.622-167.222 0.123-3.891-0.48-7.807-0.839-13.067zM482.545 498.644c-2.004-0.239-5.289-2.702-5.342-4.243-0.433-12.75-0.245-25.524-0.245-38.93h99.746c0 13.251 0.145 26.477-0.231 39.687-0.036 1.276-3.162 3.215-5.077 3.541-5.076 0.872-12.71-0.828-14.821 1.94-2.735 3.579-1.32 10.49-1.324 15.97-0.057 47.221-0.033 94.443-0.033 141.664v10.557h21.531c0 13.962-0.104 26.5 0.06 39.034 0.054 4.015-1.668 5.226-5.398 5.218-29.637-0.065-59.277 0.044-88.913-0.227-1.859-0.018-5.245-2.735-5.296-4.284-0.43-12.748-0.245-25.52-0.245-39.147h21.2V498.847c-5.33 0-10.53 0.41-15.612-0.203zM189.57 567.697c-20.15-6.774-33.23-19.673-42.121-38.172-10.31-21.46-16.334-44.246-20.596-67.468-12.715-69.27-14.956-139.27-13.794-209.475 0.009-0.487 0.23-0.971 0.694-2.811 2.597 2.053 4.838 3.724 6.969 5.528 56.861 48.102 115.689 93.538 179.766 131.783 28.945 17.274 58.89 32.443 91.265 42.454 7.35 2.273 14.27 5.928 22.253 9.312-8.67 11.965-16.728 23.087-26.007 35.887-21.83-9.722-44.587-18.309-65.881-29.65-49.227-26.222-93.094-60.36-135.995-95.732-1.678-1.384-3.412-2.698-6.488-5.123 0 6.31 0.012 11.213-0.002 16.118-0.143 48.06 1.409 96.03 12.675 143.002 3.184 13.278 8.749 26.102 14.318 38.648 4.319 9.726 12.229 16.749 22.792 19.483 36.149 9.363 72.375 18.429 108.577 27.58 2.89 0.728 5.835 1.246 9.197 1.956 0.646 5.523 1.192 10.208 1.92 16.457-12.622-2.493-24.302-4.684-35.93-7.118-41.768-8.74-83.082-19.04-123.612-32.66z m162.84 170.086c-5.769 0.197-11.569-0.418-17.329-0.13-17.109 0.855-30.638-5.99-41.807-18.52-22.078-24.769-35.436-54.44-49.307-86.075 11.682 2.813 21.625 6.128 31.829 7.454 16.306 2.12 26.234 9.31 32.22 25.69 5.409 14.798 15.176 28.148 23.956 41.523 7.83 11.926 19.6 17.54 34.11 16.961 11.536-0.46 23.151-0.074 34.6-1.293 10.004-1.07 17.506 2.079 25.555 11.634-25.885 0.982-49.854 1.946-73.827 2.756z m112.335-50.63c-0.515 6.711-0.116 13.499-0.116 21.153-65.414-27.214-110.169-125.44-66.827-192.265 0.189 0.837 0.65 1.62 0.438 2.107-20.906 47.351 3.746 122.815 59.243 155.8 5.52 3.285 7.745 6.909 7.262 13.204z m121.03 80.357c-17.633 14.08-35.247 28.183-53.045 42.054-1.525 1.188-5.037 1.886-6.357 0.975-19.94-13.782-39.666-27.872-59.442-41.894 0.225-1.104 0.453-2.21 0.68-3.314 39.754-0.766 79.507-1.53 121.21-2.33-2.016 3.02-2.369 3.97-3.046 4.51z m3.846-59.49c0-9.574-0.358-18.352 0.245-27.06 0.155-2.25 2.939-4.887 5.17-6.345 44.796-29.276 66.603-70.93 66.878-124.098 0.03-5.686-1.266-11.446-2.484-17.055-1.205-5.554-3.086-10.957-4.953-17.4 40.951 56.67 8.157 158.575-64.856 191.958z m141.855 6.64c-10.952 12.366-24.384 18.813-41.135 18.398-14.061-0.345-28.139 0-42.203-0.206-5.395-0.077-10.78-0.837-17.672-1.41 7.671-7.008 13.592-12.702 23.794-11.512 19.251 2.247 33.863-6.24 43.299-22.604 9.375-16.254 17.394-33.288 26.446-49.743 1.662-3.017 5.07-6.155 8.283-7.05 15.381-4.295 30.976-7.84 48.495-12.144-13.965 31.742-27.31 61.444-49.307 86.272z m161.919-239.904c-4.49 20.387-10.68 40.254-21.21 58.504-7.674 13.305-18.214 22.763-33.013 28.134-43.044 15.618-87.413 26.03-132.929 35.602-0.295-1.94-0.552-2.893-0.57-3.85-0.241-12.199-0.111-11.736 11.921-14.874 25.22-6.572 50.27-13.78 75.444-20.534 13.235-3.554 22.516-12.188 26.934-24.356 6.552-18.06 12.886-36.513 16.29-55.341 8.154-45.127 9.22-90.872 8.178-137.727-2.277 1.69-4.02 2.864-5.632 4.2-42.977 35.665-87.17 69.662-136.322 96.555-12.95 7.085-26.782 12.553-40.18 18.828-4.21 1.974-7.065 1.476-10.03-2.735-7.06-10.033-14.762-19.617-22.552-29.838 1.488-0.878 2.607-1.854 3.903-2.255 47.592-14.721 89.624-40.231 130.646-67.59 48.564-32.387 94.42-68.36 138.758-106.289 2.03-1.739 4.126-3.403 6.938-5.716 0.563 2.465 1.141 3.832 1.15 5.202 0.515 75.204-1.466 150.225-17.724 224.08z" p-id="24097" fill="#ffffff"></path></svg>