<?xml version="1.0" standalone="no"?><!DOCTYPE svg PUBLIC "-//W3C//DTD SVG 1.1//EN" "http://www.w3.org/Graphics/SVG/1.1/DTD/svg11.dtd"><svg t="1713952755721" class="icon" viewBox="0 0 1024 1024" version="1.1" xmlns="http://www.w3.org/2000/svg" p-id="9762" xmlns:xlink="http://www.w3.org/1999/xlink" width="18" height="18"><path d="M207.985778 45.852444s463.36 561.152 279.324444 962.730667a1190.968889 1190.968889 0 0 0-279.324444-270.279111S213.162667 460.288 45.795556 316.131556a515.811556 515.811556 0 0 1 295.822222 308.906666C367.559111 383.089778 308.337778 251.790222 207.985778 45.852444z" fill="#FFFFFF" p-id="9763"></path><path d="M626.289778 867.043556l135.168-132.551112s10.296889-301.169778 171.178666-415.744c-216.234667 135.168-293.489778 299.918222-306.346666 548.295112z" fill="#FFFFFF" p-id="9764"></path><path d="M765.269333 45.852444a1006.535111 1006.535111 0 0 0-138.979555 478.776889 904.533333 904.533333 0 0 0-33.450667 108.088889 732.615111 732.615111 0 0 0-69.518222-196.892444C542.606222 295.537778 765.269333 45.852444 765.269333 45.852444z" fill="#FFFFFF" p-id="9765"></path></svg>