<?xml version="1.0" standalone="no"?><!DOCTYPE svg PUBLIC "-//W3C//DTD SVG 1.1//EN" "http://www.w3.org/Graphics/SVG/1.1/DTD/svg11.dtd"><svg t="1736264663121" class="icon" viewBox="0 0 1024 1024" version="1.1" xmlns="http://www.w3.org/2000/svg" p-id="1496" xmlns:xlink="http://www.w3.org/1999/xlink" width="200" height="200"><path d="M905.6 329.9H762.2c-7-59.1-32-113.8-71.8-156.1-46.7-49.7-108.5-77.1-174.1-77.1s-127.4 27.4-174.1 77.1c-39.8 42.4-64.8 97-71.8 156.1H126.9c-25.9 0-47 21.1-47 47v493.4c0 25.9 21.1 47 47 47h778.7c25.9 0 47-21.1 47-47V376.9c0-25.9-21-47-47-47zM516.3 166.7c88.1 0 160.7 69.7 175.3 163.2H341c14.6-93.5 87.1-163.2 175.3-163.2z m366.3 680.7H149.9V399.9h732.7v447.5z" p-id="1497" fill="#edc215"></path><path d="M480.1 487.2h70v244.6h-70z" p-id="1498" fill="#edc215"></path></svg>